<?xml version="1.0" encoding="UTF-8"?><svg id="Layer_26" xmlns="http://www.w3.org/2000/svg" width="700" height="220" viewBox="0 0 700 220"><defs><style>.cls-1{fill:#f0edf7;}.cls-2{fill:#a99bd3;}</style></defs><path class="cls-2" d="m279.39,152.34l-6.5,46.18c-2.23.64-4.82.96-7.77.96-5.14,0-9.09-1.22-11.85-3.67s-4.15-5.92-4.15-10.41,1.8-8.55,5.4-12.41c3.6-3.87,8.48-5.8,14.64-5.8h2.42l2.07-14.84h5.74Zm-11.63,42.25l3.15-22.61h-1.49c-4.31,0-7.78,1.31-10.42,3.92-2.64,2.61-3.96,5.74-3.96,9.37,0,3.02.87,5.35,2.61,6.99,1.74,1.64,4.23,2.46,7.47,2.46,1.17,0,2.05-.04,2.64-.13Z"/><path class="cls-2" d="m310.35,168.11l-4.28,30.41h-5.74l.56-3.5-.14-.17c-2.67,2.84-5.4,4.27-8.19,4.27s-5.14-1.17-7.09-3.52c-1.95-2.35-2.92-5.18-2.92-8.51,0-5.77,1.81-10.53,5.44-14.28,3.63-3.75,8.69-5.62,15.19-5.62,2.65,0,5.04.31,7.18.93Zm-8.78,21.62l2.49-17.56c-.62-.04-1.21-.07-1.78-.07-4.52,0-7.96,1.44-10.31,4.31-2.36,2.88-3.54,6.09-3.54,9.64,0,2.45.57,4.45,1.71,6,1.14,1.55,2.58,2.33,4.32,2.33,1.39,0,2.91-.69,4.57-2.06,1.66-1.38,2.51-2.24,2.55-2.59Z"/><path class="cls-2" d="m340.39,168.11l-21.83,45.98h-6.11l8.31-17.5-5.92-28.48h5.74l4.23,20.93,9.59-20.93h6Z"/><path class="cls-2" d="m364.19,191.75l-.66,5.55c-2.64,1.45-5.47,2.18-8.46,2.18-4.08,0-7.33-1.27-9.77-3.82-2.44-2.55-3.65-5.94-3.65-10.2,0-5.14,1.85-9.47,5.54-12.99,3.69-3.53,8.41-5.29,14.17-5.29,1.45,0,3.2.18,5.22.53l-.76,5.09c-1.43-.33-2.9-.5-4.4-.5-3.99,0-7.3,1.28-9.93,3.83-2.63,2.56-3.95,5.54-3.95,8.96,0,2.87.74,5.12,2.23,6.76s3.52,2.46,6.1,2.46c2.73,0,5.51-.86,8.33-2.58Z"/><path class="cls-2" d="m397.62,168.11l-4.28,30.41h-5.74l.56-3.5-.14-.17c-2.67,2.84-5.4,4.27-8.19,4.27s-5.14-1.17-7.09-3.52c-1.95-2.35-2.92-5.18-2.92-8.51,0-5.77,1.81-10.53,5.44-14.28,3.63-3.75,8.69-5.62,15.19-5.62,2.65,0,5.04.31,7.18.93Zm-8.78,21.62l2.49-17.56c-.62-.04-1.21-.07-1.78-.07-4.52,0-7.96,1.44-10.31,4.31-2.36,2.88-3.54,6.09-3.54,9.64,0,2.45.57,4.45,1.71,6,1.14,1.55,2.58,2.33,4.32,2.33,1.39,0,2.91-.69,4.57-2.06,1.66-1.38,2.51-2.24,2.55-2.59Z"/><path class="cls-2" d="m413.07,168.11l-.89,5.79.13.13c1.81-2.58,3.24-4.29,4.3-5.12,1.06-.84,2.32-1.26,3.77-1.26.9,0,1.74.15,2.52.46v6.51c-1.21-.68-2.39-1.03-3.54-1.03s-2.13.28-3.01.84c-.88.56-1.95,1.76-3.21,3.6-1.26,1.84-1.91,2.96-1.95,3.36l-2.38,17.12h-5.74l4.26-30.41h5.74Z"/><path class="cls-2" d="m448.72,190.59l-.83,5.49c-3.09,2.27-6.47,3.4-10.15,3.4s-6.92-1.34-9.24-4.02c-2.33-2.68-3.49-6.24-3.49-10.69,0-4.96,1.39-9.13,4.18-12.51,2.79-3.38,6.2-5.07,10.23-5.07,3.09,0,5.65,1.18,7.7,3.55,2.05,2.37,3.07,5.43,3.07,9.17,0,.93-.07,1.87-.2,2.84h-18.98c-.18,1.01-.26,1.98-.26,2.91,0,2.8.77,5.01,2.3,6.63s3.45,2.43,5.77,2.43c2.82,0,6.12-1.38,9.88-4.13Zm-16.8-11.83h12.74c0-2.12-.48-3.79-1.44-5.01-.96-1.22-2.31-1.83-4.05-1.83-3.31,0-5.72,2.28-7.24,6.84Z"/><path class="cls-2" d="m498.5,192.36c-1.89,0-3.43-1.53-3.43-3.43,0-1.89,1.53-3.43,3.43-3.43l191.33-.13h0c1.89,0,3.43,1.53,3.43,3.43,0,1.89-1.53,3.43-3.43,3.43l-191.33.13h0Z"/><path class="cls-2" d="m201.99,192.28h0l-191.82-.05c-1.89,0-3.43-1.54-3.43-3.43,0-1.89,1.54-3.43,3.43-3.43h0l191.82.05c1.89,0,3.43,1.54,3.43,3.43,0,1.89-1.54,3.43-3.43,3.43Z"/><path class="cls-1" d="m177.59,47.41v35c1.74-5.55,2.61-11.29,2.61-17.23,0-6.29-.87-12.21-2.61-17.77Z"/><path class="cls-1" d="m272.64,36.44V7.71h-95.06v114.49h95.06v-28.73h-44.41v-14.1h30.91v-28.74h-30.91v-14.18h44.41Z"/><path class="cls-1" d="m360,7.71l-20.78,23.86-20.71-23.86h-49.22v114.49h50.72v-57.32l19.21,22.13,19.2-22.13v57.32h50.72V7.71h-49.14Z"/><path class="cls-1" d="m408.48,64.88c0,3.24.22,6.38.66,9.42v-18.82c-.44,3.04-.66,6.16-.66,9.39Zm117.14-6.21v12.44c.19-2.03.28-4.11.28-6.23s-.09-4.18-.28-6.21Z"/><path class="cls-1" d="m508.83,23.05c-11.38-11.43-25.27-17.15-41.68-17.15s-30.23,5.72-41.61,17.15c-9.14,9.19-14.62,20-16.41,32.43v18.82c1.79,12.48,7.27,23.33,16.41,32.56,11.38,11.48,25.25,17.22,41.61,17.22s30.3-5.74,41.68-17.22c9.92-10.01,15.51-21.92,16.79-35.75v-12.44c-1.27-13.78-6.87-25.66-16.79-35.62Zm-41.85,55.5c-7.44,0-13.48-6.03-13.48-13.48s6.03-13.48,13.48-13.48,13.48,6.03,13.48,13.48-6.03,13.48-13.48,13.48Z"/><path class="cls-1" d="m525.62,58.67v12.44c.19-2.03.28-4.11.28-6.23s-.09-4.18-.28-6.21Z"/><path class="cls-1" d="m689.82,7.71l-50.52,38.57v76.82h-38.42l-24.61-36.09v35.19h-50.64v-51.09c.19-2.03.28-4.11.28-6.23s-.09-4.18-.28-6.21V7.71h36.24l26.71,38.71V7.71h101.24Z"/><path class="cls-1" d="m163.62,24.55c-11.06-11.23-26.74-16.85-47.05-16.85h-56.35s-50.04,0-50.04,0l50.04,38.2v76.29h55.15c13.75,0,25.49-2.48,35.19-7.46,9.7-4.98,17.07-11.96,22.09-20.93,2.08-3.7,3.72-7.5,4.93-11.39v-35c-2.64-8.46-7.3-16.08-13.97-22.86Zm-38.23,50.64c-2.72,2.13-7.14,3.19-13.24,3.19h-1.27v-26.86h3.22c10.25,0,15.38,4.4,15.38,13.21,0,4.85-1.36,8.34-4.09,10.47Z"/></svg>