<?xml version="1.0" encoding="UTF-8"?><svg id="Layer_26" xmlns="http://www.w3.org/2000/svg" width="80" height="80" viewBox="0 0 80 80"><defs><style>.cls-1{fill:#fff;}.cls-2{fill:#f0edf7;}.cls-3{fill:#2a076d;}.cls-4{fill:#4308a0;}.cls-5{fill:#6737c4;}</style></defs><path class="cls-4" d="m48.92,20.36h.49c.88,0,1.75-.2,2.54-.6.58-.29,1.25-.7,1.88-1.25.58-.51,1.13-1.13,1.52-1.89.21-.41.39-.86.5-1.35.04-.2.08-.4.1-.62.08-.72.07-1.49-.01-2.28-.08-.76-.24-1.54-.46-2.3-.37-1.29-.91-2.53-1.56-3.57-.68-1.08-1.48-1.95-2.34-2.44-.46-.26-.37-.96.14-1.1.45-.13,1.1-.2,2.04-.16.19,0,.39.03.58.05,1.41.19,2.71.85,3.83,1.77.95.77,1.78,1.72,2.47,2.73.41.6.8,1.29,1.16,2.07.57,1.24,1.05,2.73,1.33,4.49.06.36.11.73.15,1.11.22,1.98.08,3.77-.26,5.35-.37,1.72-.98,3.19-1.64,4.39-1.13,2.06-2.4,3.35-2.86,3.79-.12.11-.19.26-.19.42l-.06,31.11h.02v9.94c0,3.97-3.21,7.18-7.18,7.18s-7.18-3.21-7.18-7.18v-9.94h-7.89v9.94c0,3.97-3.21,7.18-7.18,7.18s-7.18-3.21-7.18-7.18v-9.94h0v-31.12c0-.16-.07-.31-.19-.42-.45-.42-1.66-1.65-2.76-3.61h0c-.86-1.53-1.65-3.5-1.96-5.88-.16-1.24-.19-2.59-.04-4.04.01-.13.03-.25.04-.38.21-1.64.58-3.05,1.04-4.27.45-1.19.99-2.19,1.55-3.03.41-.61.88-1.21,1.4-1.75,1.46-1.54,3.32-2.68,5.4-2.8.03,0,.05,0,.08,0,.94-.04,1.59.04,2.04.16.51.14.6.84.14,1.1-.5.28-.97.69-1.42,1.2-.86.98-1.61,2.31-2.14,3.77-.41,1.1-.69,2.28-.8,3.42-.08.76-.08,1.5,0,2.2.01.12.03.24.05.35.14.82.46,1.54.87,2.15.69,1.03,1.65,1.77,2.5,2.28.2.12.4.23.58.32.79.4,1.66.6,2.54.6h18.32Z"/><path class="cls-2" d="m51.1,78c-4.39,0-7.97-3.57-7.97-7.97v-9.15h-6.32v9.15c0,4.39-3.57,7.97-7.97,7.97s-7.97-3.57-7.97-7.97v-9.94s0-.08,0-.12v-30.91c-.53-.5-1.74-1.77-2.84-3.71,0-.01-.01-.02-.02-.03-1.08-1.92-1.77-4-2.06-6.17-.18-1.37-.19-2.79-.04-4.22.01-.13.03-.26.05-.39.2-1.58.56-3.08,1.08-4.45.44-1.15.99-2.22,1.64-3.19.45-.67.95-1.29,1.49-1.85,1.78-1.87,3.83-2.92,5.91-3.04.03,0,.07,0,.1,0,.91-.04,1.68.02,2.28.19.54.15.94.61,1,1.17.07.56-.2,1.09-.69,1.37-.41.23-.82.58-1.22,1.03-.78.88-1.49,2.13-1.99,3.52-.39,1.06-.65,2.18-.76,3.23-.07.72-.08,1.41,0,2.03.01.1.03.2.04.31.11.65.37,1.27.75,1.84.52.78,1.28,1.46,2.25,2.04.18.11.36.21.54.3.67.34,1.42.52,2.18.52h18.81c.76,0,1.52-.17,2.18-.51.65-.33,1.23-.71,1.72-1.15.58-.5,1.03-1.06,1.34-1.66.19-.37.34-.76.43-1.16.04-.17.07-.35.09-.53.07-.65.07-1.36-.01-2.11-.08-.71-.22-1.44-.43-2.17-.35-1.23-.86-2.39-1.47-3.37-.64-1.02-1.35-1.77-2.06-2.17-.48-.28-.75-.81-.69-1.37.07-.56.46-1.02,1-1.17.6-.17,1.37-.23,2.29-.19.21,0,.43.03.65.06,1.47.2,2.89.85,4.22,1.94.97.78,1.85,1.76,2.62,2.9.46.68.87,1.41,1.22,2.19.65,1.42,1.12,3,1.39,4.69.06.38.11.76.16,1.15.21,1.91.12,3.79-.27,5.6-.34,1.6-.92,3.15-1.72,4.6-1.13,2.07-2.41,3.4-2.96,3.93l-.06,30.82c.02.06.02.13.02.2v9.94c0,4.39-3.57,7.97-7.97,7.97Zm-15.07-18.69h7.89c.43,0,.79.35.79.79v9.94c0,3.52,2.87,6.39,6.39,6.39s6.39-2.87,6.39-6.39v-9.74c-.02-.06-.02-.13-.02-.2l.06-31.11s0-.01,0-.02c.01-.37.17-.72.44-.97.46-.43,1.65-1.64,2.71-3.59.72-1.32,1.25-2.73,1.56-4.18.35-1.65.44-3.36.25-5.1-.04-.36-.09-.72-.14-1.07-.25-1.55-.68-3-1.27-4.29-.32-.69-.69-1.35-1.1-1.96-.67-1-1.47-1.88-2.31-2.56-1.11-.9-2.27-1.44-3.45-1.6-.17-.02-.34-.04-.51-.05-.6-.03-1.04,0-1.36.05.79.55,1.55,1.39,2.22,2.45.69,1.1,1.26,2.41,1.65,3.77.23.81.39,1.63.48,2.43.09.87.1,1.69.01,2.45-.03.24-.07.48-.12.7-.12.53-.31,1.05-.57,1.54-.41.77-.98,1.49-1.7,2.12-.59.51-1.28.97-2.04,1.36-.88.45-1.89.69-2.89.69h-18.81c-1.01,0-2.01-.25-2.89-.7-.21-.1-.42-.22-.63-.35-1.18-.7-2.1-1.55-2.76-2.52-.5-.75-.84-1.58-.99-2.45-.02-.14-.04-.27-.06-.4-.08-.74-.08-1.53,0-2.37.12-1.18.42-2.43.85-3.61.58-1.59,1.38-2.98,2.29-4.02.39-.44.8-.82,1.22-1.11-.32-.05-.76-.07-1.36-.05-.02,0-.04,0-.05,0,0,0,0,0-.01,0-2.13.12-3.83,1.46-4.87,2.56-.48.5-.92,1.05-1.32,1.65-.58.87-1.08,1.83-1.47,2.87-.48,1.25-.81,2.63-.99,4.09-.02.12-.03.24-.04.36-.14,1.31-.13,2.61.03,3.85.25,1.96.88,3.83,1.85,5.57,0,0,.01.02.02.03,1.04,1.85,2.18,3.01,2.62,3.42.27.25.43.6.44.97,0,0,0,.02,0,.02v31.12s0,.08,0,.12v9.82c0,3.52,2.87,6.39,6.39,6.39s6.39-2.87,6.39-6.39v-9.94c0-.43.35-.79.79-.79Z"/><path class="cls-1" d="m44.26,39.09c.11-1.68.87-3.3,2.07-4.47s2.85-1.87,4.53-1.94c.31,1.26-.22,2.63-1.1,3.58s-2.08,1.57-3.28,2.07c-.65.27-1.32.51-2.02.62l-.2.14Z"/><path class="cls-1" d="m35.7,39.09c-.11-1.68-.87-3.3-2.07-4.47s-2.85-1.87-4.53-1.94c-.31,1.26.22,2.63,1.1,3.58s2.08,1.57,3.28,2.07c.65.27,1.32.51,2.02.62l.2.14Z"/><ellipse class="cls-3" cx="47.23" cy="35.8" rx="1.26" ry="1.62"/><ellipse class="cls-3" cx="32.67" cy="35.78" rx="1.26" ry="1.62"/><circle class="cls-5" cx="53.15" cy="42.22" r="2.47"/><circle class="cls-5" cx="27.38" cy="42.22" r="2.47"/><path class="cls-1" d="m36.98,45.22l-.34,1-.56,1.61-.56-1.61-.5-1.45c.61.15,1.26.31,1.95.45Z"/><path class="cls-1" d="m44.85,44.78l-.5,1.44-.56,1.62-.56-1.62-.34-.99c.7-.14,1.36-.29,1.97-.44Z"/><path class="cls-1" d="m39.95,45.71c-1.43,0-2.87-.18-4.26-.52-.29-.07-.57-.15-.85-.23-.39-.12-.77-.25-1.14-.39-.36-.13-.54-.53-.4-.89.13-.36.53-.54.89-.4.34.13.7.25,1.05.36.26.08.52.15.79.22,1.29.32,2.61.48,3.93.48,0,0,.02,0,.03,0,1.31,0,2.62-.16,3.89-.48.26-.06.53-.14.78-.21.37-.11.73-.24,1.07-.36.36-.14.75.04.89.4.13.36-.04.75-.4.89-.37.14-.76.27-1.16.39-.28.08-.57.16-.85.23-1.38.34-2.8.51-4.22.52-.01,0-.02,0-.03,0Z"/></svg>